# xmcd CD database file
#
# Track frame offsets:
#	150
#	7631
#	31192
#	36123
#	58784
#	79210
#	87696
#	108572
#	129628
#	143289
#	164225
#	186738
#	208180
#	232001
#	268888
#
# Disc length: 3951 seconds
#
# Revision: 0
# Processed by: cddbd v1.5.1PL0 Copyright (c) Steve Scherf et al.
# Submitted via: CDex 1.51
#
DISCID=db0f6d0f
DTITLE=植木屋 - 天使が消えた日 - ANGERAZE ORIGINAL SOUND TRACK - Disc2 ANGERAZE and BONUS TRACK SIDE
DYEAR=2004
DGENRE=Hard Rock
TTITLE0=Pathos
TTITLE1=トキハナツ
TTITLE2=Blue
TTITLE3=偶発性の精神病理
TTITLE4=漆黒
TTITLE5=New Moon
TTITLE6=位相
TTITLE7=Promised Land
TTITLE8=In The Sky
TTITLE9=ゲッセマネ
TTITLE10=天使が消えた日
TTITLE11=とびトウカ
TTITLE12=夢の空
TTITLE13=The Outer Limits
TTITLE14=Data Track
EXTD=YEAR: 2004
EXTT0=
EXTT1=
EXTT2=
EXTT3=
EXTT4=
EXTT5=
EXTT6=
EXTT7=
EXTT8=
EXTT9=
EXTT10=
EXTT11=
EXTT12=
EXTT13=
EXTT14=
PLAYORDER=
